<svg width="1440" height="917" viewBox="0 0 1440 917" fill="none" xmlns="http://www.w3.org/2000/svg">
<g clip-path="url(#clip0_129_160)">
<path d="M707.232 302.503C747.212 311.016 798.337 301.141 840.794 284.455C882.543 267.77 966.219 204.434 1018.58 162.891C1152.67 53.2453 1255.1 11.3618 1359.3 -6.34497C1401.05 -13.4958 1445.45 -18.263 1542.22 2.16794C1638.98 22.5989 1730.09 89.3399 1730.09 89.3399V324.636L-39.124 324.636L-39.124 221.46C-39.124 221.46 88.2465 110.452 241.091 117.603C310.437 119.986 405.258 140.417 478.142 193.878C515.645 221.46 570.485 255.852 619.134 276.283C667.252 297.735 689.011 299.098 707.232 302.503Z" fill="#0C192E"/>
</g>
<rect x="-39" y="319" width="1488" height="558" fill="#0C192E"/>
<defs>
<clipPath id="clip0_129_160">
<rect width="1769.21" height="331.914" fill="white" transform="matrix(1 0 0 -1 -39.124 331.914)"/>
</clipPath>
</defs>
</svg>
