<svg width="184" height="27" viewBox="0 0 184 27" fill="none" xmlns="http://www.w3.org/2000/svg">
<g id="icone r&#195;&#169;eaux">
<path id="Vector" d="M117.5 0C110.045 0 104 6.04463 104 13.5C104 20.9554 110.045 27 117.5 27C124.955 27 131 20.9554 131 13.5C131 6.04463 124.955 0 117.5 0ZM120.875 9H119.356C118.751 9 118.625 9.24862 118.625 9.87525V11.25H120.875L120.64 13.5H118.625V21.375H115.25V13.5H113V11.25H115.25V8.6535C115.25 6.66337 116.297 5.625 118.658 5.625H120.875V9Z" fill="#F39200"/>
<path id="Vector_2" d="M173.683 7.08975C172.852 7.0515 172.603 7.04475 170.5 7.04475C168.397 7.04475 168.149 7.05263 167.318 7.08975C165.182 7.18762 164.188 8.199 164.09 10.3185C164.053 11.1488 164.044 11.3974 164.044 13.5C164.044 15.6026 164.053 15.8513 164.09 16.6826C164.188 18.7965 165.178 19.8135 167.318 19.9114C168.148 19.9485 168.397 19.9575 170.5 19.9575C172.604 19.9575 172.852 19.9496 173.683 19.9114C175.819 19.8146 176.812 18.7999 176.911 16.6826C176.948 15.8524 176.956 15.6026 176.956 13.5C176.956 11.3974 176.948 11.1488 176.911 10.3185C176.812 8.20012 175.817 7.18762 173.683 7.08975ZM170.5 17.5444C168.267 17.5444 166.456 15.7343 166.456 13.5C166.456 11.2669 168.267 9.45675 170.5 9.45675C172.733 9.45675 174.544 11.2669 174.544 13.5C174.544 15.7331 172.733 17.5444 170.5 17.5444ZM174.704 10.242C174.182 10.242 173.759 9.819 173.759 9.297C173.759 8.775 174.182 8.352 174.704 8.352C175.226 8.352 175.649 8.775 175.649 9.297C175.649 9.81787 175.226 10.242 174.704 10.242ZM173.125 13.5C173.125 14.9501 171.949 16.1246 170.5 16.1246C169.051 16.1246 167.875 14.9501 167.875 13.5C167.875 12.0499 169.051 10.8754 170.5 10.8754C171.949 10.8754 173.125 12.0499 173.125 13.5ZM170.5 0C163.045 0 157 6.04463 157 13.5C157 20.9554 163.045 27 170.5 27C177.955 27 184 20.9554 184 13.5C184 6.04463 177.955 0 170.5 0ZM178.328 16.7467C178.198 19.6099 176.604 21.1961 173.748 21.3278C172.908 21.366 172.639 21.375 170.5 21.375C168.361 21.375 168.094 21.366 167.253 21.3278C164.391 21.1961 162.804 19.6076 162.672 16.7467C162.634 15.9075 162.625 15.6386 162.625 13.5C162.625 11.3614 162.634 11.0936 162.672 10.2533C162.804 7.39125 164.392 5.80388 167.253 5.67338C168.094 5.634 168.361 5.625 170.5 5.625C172.639 5.625 172.908 5.634 173.748 5.67338C176.611 5.805 178.2 7.39688 178.328 10.2533C178.366 11.0936 178.375 11.3614 178.375 13.5C178.375 15.6386 178.366 15.9075 178.328 16.7467Z" fill="#F39200"/>
<path id="Vector_3" d="M64.5 0C57.0446 0 51 6.04463 51 13.5C51 20.9554 57.0446 27 64.5 27C71.9554 27 78 20.9554 78 13.5C78 6.04463 71.9554 0 64.5 0ZM71.3242 10.8506C71.5301 15.3956 68.1405 20.4626 62.1398 20.4626C60.315 20.4626 58.6174 19.9271 57.1875 19.0103C58.902 19.2128 60.6131 18.7358 61.971 17.6726C60.558 17.6467 59.3644 16.7119 58.9515 15.4282C59.4589 15.525 59.9584 15.4969 60.4118 15.3731C58.8581 15.0604 57.7849 13.6609 57.8197 12.1635C58.2562 12.4054 58.7535 12.5505 59.2834 12.5674C57.8445 11.6055 57.4372 9.70537 58.2832 8.253C59.8763 10.2083 62.2579 11.4941 64.9433 11.6291C64.4719 9.60862 66.0052 7.66125 68.0921 7.66125C69.0203 7.66125 69.8606 8.05387 70.4501 8.68163C71.1859 8.53763 71.8789 8.26762 72.5021 7.8975C72.2603 8.65238 71.7484 9.28463 71.0813 9.68513C71.7349 9.60638 72.3581 9.43313 72.9364 9.1755C72.5044 9.82575 71.9576 10.395 71.3242 10.8506Z" fill="#F39200"/>
<path id="Vector_4" d="M13.5 0C6.04406 0 0 6.04406 0 13.5C0 20.9559 6.04406 27 13.5 27C20.9559 27 27 20.9559 27 13.5C27 6.04406 20.9559 0 13.5 0ZM10.1953 19.0955H7.46156V10.298H10.1953V19.0955ZM8.81156 9.21797C7.94812 9.21797 7.38984 8.60625 7.38984 7.84969C7.38984 7.07766 7.965 6.48422 8.84672 6.48422C9.72844 6.48422 10.2684 7.07766 10.2853 7.84969C10.2853 8.60625 9.72844 9.21797 8.81156 9.21797ZM20.1797 19.0955H17.4459V14.22C17.4459 13.0852 17.0494 12.3145 16.0608 12.3145C15.3056 12.3145 14.857 12.8363 14.6588 13.3383C14.5856 13.5169 14.5673 13.77 14.5673 14.0217V19.0941H11.8322V13.1034C11.8322 12.0052 11.797 11.0869 11.7605 10.2966H14.1356L14.2608 11.5186H14.3156C14.6756 10.9448 15.5573 10.0983 17.0325 10.0983C18.8311 10.0983 20.1797 11.3034 20.1797 13.8938V19.0955Z" fill="#F39200"/>
</g>
</svg>
