<svg width="89" height="89" viewBox="0 0 89 89" fill="none" xmlns="http://www.w3.org/2000/svg">
<circle cx="44.2987" cy="44.2987" r="43.7987" fill="white" stroke="#0C192E"/>
<path d="M57.0881 39.3539C57.0881 40.9652 56.567 42.9338 55.6938 45.0872C54.8238 47.2327 53.6202 49.5242 52.2904 51.77C49.6313 56.2611 46.4903 60.5326 44.572 63.0322C43.8499 63.9667 42.5322 63.9667 41.81 63.0322C39.8917 60.5326 36.7508 56.2611 34.0916 51.77C32.7619 49.5242 31.5582 47.2327 30.6882 45.0872C29.8151 42.9338 29.2939 40.9652 29.2939 39.3539C29.2939 31.3353 35.5376 24.8643 43.191 24.8643C50.8445 24.8643 57.0881 31.3353 57.0881 39.3539ZM46.9451 35.4744C45.953 34.4415 44.6031 33.8573 43.191 33.8573C41.779 33.8573 40.4291 34.4415 39.437 35.4744C38.4456 36.5066 37.892 37.9024 37.892 39.3539C37.892 40.8053 38.4456 42.2011 39.437 43.2333C40.4291 44.2662 41.779 44.8504 43.191 44.8504C44.6031 44.8504 45.953 44.2662 46.9451 43.2333C47.9365 42.2011 48.49 40.8053 48.49 39.3539C48.49 37.9024 47.9365 36.5066 46.9451 35.4744Z" fill="#F39200" stroke="#007739"/>
</svg>
