<svg width="89" height="89" viewBox="0 0 89 89" fill="none" xmlns="http://www.w3.org/2000/svg">
<circle cx="44.2987" cy="44.2987" r="43.7987" fill="white" stroke="#0C192E"/>
<path d="M27.8943 31.5088C26.2307 31.5088 24.8643 32.8879 24.8643 34.6081C24.8643 35.5865 25.3153 36.5038 26.0802 37.0904C26.0803 37.0905 26.0804 37.0906 26.0805 37.0907L42.0818 49.327C42.0818 49.327 42.0819 49.327 42.082 49.3271C42.7413 49.8282 43.6406 49.8283 44.3001 49.3274C44.3002 49.3272 44.3004 49.3271 44.3006 49.327L60.3019 37.0907L27.8943 31.5088ZM27.8943 31.5088H58.4881C60.1517 31.5088 61.5182 32.8879 61.5182 34.6081C61.5182 35.5864 61.0671 36.5036 60.3024 37.0903L27.8943 31.5088ZM24.8643 55.0039V40.4189L40.0634 52.0418C41.9195 53.4611 44.4629 53.4611 46.319 52.0418L61.5182 40.4189V55.0039C61.5182 57.3839 59.6222 59.3029 57.3114 59.3029H29.071C26.7602 59.3029 24.8643 57.3839 24.8643 55.0039Z" fill="#F39200" stroke="#007739"/>
</svg>
