<svg width="222" height="32" viewBox="0 0 222 32" fill="none" xmlns="http://www.w3.org/2000/svg">
<g id="Reseau sociaux">
<path id="Vector" d="M142 0C133.164 0 126 7.164 126 16C126 24.836 133.164 32 142 32C150.836 32 158 24.836 158 16C158 7.164 150.836 0 142 0ZM146 10.6667H144.2C143.483 10.6667 143.333 10.9613 143.333 11.704V13.3333H146L145.721 16H143.333V25.3333H139.333V16H136.667V13.3333H139.333V10.256C139.333 7.89733 140.575 6.66667 143.372 6.66667H146V10.6667Z" fill="white"/>
<path id="Vector_2" d="M209.772 8.40267C208.788 8.35733 208.492 8.34933 206 8.34933C203.508 8.34933 203.213 8.35867 202.229 8.40267C199.697 8.51867 198.519 9.71733 198.403 12.2293C198.359 13.2133 198.348 13.508 198.348 16C198.348 18.492 198.359 18.7867 198.403 19.772C198.519 22.2773 199.692 23.4827 202.229 23.5987C203.212 23.6427 203.508 23.6533 206 23.6533C208.493 23.6533 208.788 23.644 209.772 23.5987C212.304 23.484 213.481 22.2813 213.599 19.772C213.643 18.788 213.652 18.492 213.652 16C213.652 13.508 213.643 13.2133 213.599 12.2293C213.481 9.71867 212.301 8.51867 209.772 8.40267ZM206 20.7933C203.353 20.7933 201.207 18.648 201.207 16C201.207 13.3533 203.353 11.208 206 11.208C208.647 11.208 210.793 13.3533 210.793 16C210.793 18.6467 208.647 20.7933 206 20.7933ZM210.983 12.1387C210.364 12.1387 209.863 11.6373 209.863 11.0187C209.863 10.4 210.364 9.89867 210.983 9.89867C211.601 9.89867 212.103 10.4 212.103 11.0187C212.103 11.636 211.601 12.1387 210.983 12.1387ZM209.111 16C209.111 17.7187 207.717 19.1107 206 19.1107C204.283 19.1107 202.889 17.7187 202.889 16C202.889 14.2813 204.283 12.8893 206 12.8893C207.717 12.8893 209.111 14.2813 209.111 16ZM206 0C197.164 0 190 7.164 190 16C190 24.836 197.164 32 206 32C214.836 32 222 24.836 222 16C222 7.164 214.836 0 206 0ZM215.277 19.848C215.124 23.2413 213.235 25.1213 209.849 25.2773C208.853 25.3227 208.535 25.3333 206 25.3333C203.465 25.3333 203.148 25.3227 202.152 25.2773C198.76 25.1213 196.879 23.2387 196.723 19.848C196.677 18.8533 196.667 18.5347 196.667 16C196.667 13.4653 196.677 13.148 196.723 12.152C196.879 8.76 198.761 6.87867 202.152 6.724C203.148 6.67733 203.465 6.66667 206 6.66667C208.535 6.66667 208.853 6.67733 209.849 6.724C213.243 6.88 215.125 8.76667 215.277 12.152C215.323 13.148 215.333 13.4653 215.333 16C215.333 18.5347 215.323 18.8533 215.277 19.848Z" fill="white"/>
<path id="Vector_3" d="M78 0C69.164 0 62 7.164 62 16C62 24.836 69.164 32 78 32C86.836 32 94 24.836 94 16C94 7.164 86.836 0 78 0ZM86.088 12.86C86.332 18.2467 82.3147 24.252 75.2027 24.252C73.04 24.252 71.028 23.6173 69.3333 22.5307C71.3653 22.7707 73.3933 22.2053 75.0027 20.9453C73.328 20.9147 71.9133 19.8067 71.424 18.2853C72.0253 18.4 72.6173 18.3667 73.1547 18.22C71.3133 17.8493 70.0413 16.1907 70.0827 14.416C70.6 14.7027 71.1893 14.8747 71.8173 14.8947C70.112 13.7547 69.6293 11.5027 70.632 9.78133C72.52 12.0987 75.3427 13.6227 78.5253 13.7827C77.9667 11.388 79.784 9.08 82.2573 9.08C83.3573 9.08 84.3533 9.54533 85.052 10.2893C85.924 10.1187 86.7453 9.79867 87.484 9.36C87.1973 10.2547 86.5907 11.004 85.8 11.4787C86.5747 11.3853 87.3133 11.18 87.9987 10.8747C87.4867 11.6453 86.8387 12.32 86.088 12.86Z" fill="white"/>
<path id="Vector_4" d="M16.5 0C7.38719 0 0 7.16333 0 16C0 24.8367 7.38719 32 16.5 32C25.6128 32 33 24.8367 33 16C33 7.16333 25.6128 0 16.5 0ZM12.4609 22.6317H9.11969V12.205H12.4609V22.6317ZM10.7697 10.925C9.71437 10.925 9.03203 10.2 9.03203 9.30333C9.03203 8.38833 9.735 7.685 10.8127 7.685C11.8903 7.685 12.5503 8.38833 12.5709 9.30333C12.5709 10.2 11.8903 10.925 10.7697 10.925ZM24.6641 22.6317H21.3228V16.8533C21.3228 15.5083 20.8381 14.595 19.6298 14.595C18.7069 14.595 18.1586 15.2133 17.9163 15.8083C17.8269 16.02 17.8045 16.32 17.8045 16.6183V22.63H14.4616V15.53C14.4616 14.2283 14.4186 13.14 14.3739 12.2033H17.2769L17.4298 13.6517H17.4969C17.9369 12.9717 19.0145 11.9683 20.8175 11.9683C23.0158 11.9683 24.6641 13.3967 24.6641 16.4667V22.6317Z" fill="white"/>
</g>
</svg>
