<svg width="744" height="301" viewBox="0 0 744 301" fill="none" xmlns="http://www.w3.org/2000/svg">
<path d="M420.51 281.238C448.125 288.839 483.437 280.022 512.762 265.124C541.598 250.226 599.393 193.676 635.561 156.583C728.179 58.6841 798.926 21.2878 870.894 5.47803C899.731 -0.906708 930.4 -5.16321 997.237 13.0789C1064.07 31.321 1127 90.9118 1127 90.9118V301L-95 301V208.877C-95 208.877 -7.02481 109.762 98.5454 116.147C146.443 118.275 211.936 136.517 262.277 184.251C288.181 208.877 326.059 239.585 359.661 257.827C392.896 276.981 407.925 278.197 420.51 281.238Z" fill="#0C192E"/>
</svg>
