<svg width="89" height="89" viewBox="0 0 89 89" fill="none" xmlns="http://www.w3.org/2000/svg">
<circle cx="44.2987" cy="44.2987" r="43.7987" fill="white" stroke="#0C192E"/>
<path d="M33.1369 27.166L33.1367 27.1661L26.6666 28.9307C26.6664 28.9307 26.6662 28.9308 26.666 28.9308C25.6019 29.2247 24.8643 30.1904 24.8643 31.2873C24.8643 49.2048 39.3924 63.733 57.31 63.733C58.4066 63.733 59.3721 62.9957 59.6662 61.932L33.1369 27.166ZM33.1369 27.166C34.2908 26.8508 35.4953 27.4162 35.9909 28.494V28.4972L36.0294 28.5895L38.971 35.6493L38.9711 35.6495C39.3859 36.644 39.0995 37.7909 38.263 38.4747C38.263 38.4747 38.263 38.4748 38.263 38.4748L34.6375 41.4384L34.3348 41.6858L34.502 42.0393C37.0003 47.321 41.2762 51.597 46.558 54.0953L46.911 54.2623L47.1585 53.9602L50.1295 50.3347L50.1312 50.3326C50.8066 49.499 51.9594 49.2108 52.9551 49.6262L52.9553 49.6263L60.0151 52.5679L60.0162 52.5683C61.1504 53.0379 61.7548 54.2757 61.4312 55.4603L61.4312 55.4605L59.6666 61.9306L33.1369 27.166Z" fill="#F39200" stroke="#0C192E"/>
</svg>
