<svg width="390" height="296" viewBox="0 0 390 296" fill="none" xmlns="http://www.w3.org/2000/svg">
<path d="M190.431 276.566C208.599 284.041 231.832 275.37 251.126 260.72C270.099 246.07 308.124 190.458 331.92 153.982C392.858 57.7093 439.404 20.9342 486.755 5.38702C505.728 -0.891663 525.906 -5.07745 569.881 12.8616C613.855 30.8007 655.257 89.4017 655.257 89.4017V296L-148.743 296V205.408C-148.743 205.408 -90.861 107.939 -21.4023 114.217C10.1113 116.31 53.2014 134.249 86.3229 181.19C103.366 205.408 128.288 235.605 150.395 253.544C172.262 272.38 182.15 273.576 190.431 276.566Z" fill="#0C192E"/>
</svg>
